<?xml version="1.0" encoding="UTF-8"?>
<svg viewBox="0 0 200 200" xmlns="http://www.w3.org/2000/svg">
  <style>
    @import url('https://fonts.googleapis.com/css2?family=Pixelify+Sans&amp;display=swap');
    
    /* Базовые стили */
    .pixel-bg {
      fill: #121212;
    }
    
    /* Анимации для элементов аватара */
    @keyframes float {
      0% { transform: translateY(0); }
      50% { transform: translateY(-5px); }
      100% { transform: translateY(0); }
    }
    
    @keyframes pulse {
      0% { opacity: 0.7; }
      50% { opacity: 1; }
      100% { opacity: 0.7; }
    }
    
    @keyframes pixelDrift {
      0% { transform: translate(0, 0); }
      25% { transform: translate(3px, -3px); }
      50% { transform: translate(0, -6px); }
      75% { transform: translate(-3px, -3px); }
      100% { transform: translate(0, 0); }
    }
    
    @keyframes avatarBlink {
      0%, 90%, 100% { transform: scaleY(1); transform: translateY(0); }
      95% { transform: scaleY(0.1); transform: translateY(0); }
    }
    
    @keyframes avatarEmote {
      0%, 100% { transform: scale(1); }
      50% { transform: scale(1.05); }
    }
    
    @keyframes spin {
      from { transform: rotate(0deg); }
      to { transform: rotate(360deg); }
    }
    
    @keyframes colorShift {
      0% { fill: #9966ff; }
      50% { fill: #00ffea; }
      100% { fill: #9966ff; }
    }
    
    .avatar {
      animation: float 5s infinite ease-in-out;
    }
    
    .avatar-eye {
      transform-origin: center;
      animation: avatarBlink 4s infinite;
    }
    
    .pixel-particle {
      animation: pixelDrift 5s infinite ease-in-out;
    }
    
    .pixel-particle:nth-child(odd) {
      animation-delay: 0.7s;
      animation-duration: 4.3s;
    }
    
    .pixel-particle:nth-child(3n) {
      animation-delay: 1.2s;
      animation-duration: 5.7s;
    }
    
    .glow {
      animation: pulse 2s infinite alternate ease-in-out;
    }
    
    .spin {
      transform-origin: center;
      animation: spin 8s linear infinite;
    }
    
    .color-shift {
      animation: colorShift 5s infinite alternate;
    }
    
    .emote {
      animation: avatarEmote 2s infinite ease-in-out;
    }
    
    /* Состояния аватара */
    .avatar-container:hover .avatar-happy { display: block; }
    .avatar-container:hover .avatar-normal { display: none; }
    
    .avatar-normal { display: block; }
    .avatar-happy { display: none; }
  </style>
  
  <!-- Фон -->
  <rect class="pixel-bg" x="0" y="0" width="200" height="200" rx="10"/>
  
  <!-- Пиксельные частицы фона -->
  <g>
    <rect class="pixel-particle color-shift" x="20" y="20" width="4" height="4" fill="#9966ff" opacity="0.5"/>
    <rect class="pixel-particle" x="50" y="30" width="3" height="3" fill="#00ffea" opacity="0.4"/>
    <rect class="pixel-particle color-shift" x="140" y="15" width="5" height="5" fill="#9966ff" opacity="0.6"/>
    <rect class="pixel-particle" x="170" y="35" width="4" height="4" fill="#00ffea" opacity="0.5"/>
    <rect class="pixel-particle color-shift" x="30" y="150" width="5" height="5" fill="#9966ff" opacity="0.6"/>
    <rect class="pixel-particle" x="70" y="160" width="3" height="3" fill="#00ffea" opacity="0.4"/>
    <rect class="pixel-particle color-shift" x="150" y="170" width="4" height="4" fill="#9966ff" opacity="0.5"/>
    <rect class="pixel-particle" x="180" y="140" width="5" height="5" fill="#00ffea" opacity="0.6"/>
  </g>
  
  <!-- Группа аватара с интерактивностью -->
  <g class="avatar-container" transform="translate(65, 30)">
    <!-- Обычное состояние -->
    <g class="avatar avatar-normal">
      <!-- Тело -->
      <rect x="10" y="50" width="40" height="70" fill="#ffb7fa" rx="5"/>
      
      <!-- Голова -->
      <rect x="10" y="10" width="50" height="50" fill="#ffb7fa" rx="10"/>
      
      <!-- Глаза -->
      <g>
        <rect class="avatar-eye" x="20" y="30" width="6" height="6" fill="#9966ff"/>
        <rect class="avatar-eye" x="44" y="30" width="6" height="6" fill="#9966ff"/>
      </g>
      
      <!-- Рот -->
      <rect x="30" y="42" width="10" height="2" fill="#9966ff"/>
      
      <!-- Пиксельные украшения -->
      <rect class="pixel glow" x="16" y="16" width="4" height="4" fill="#6b21df" opacity="0.7"/>
      <rect class="pixel glow" x="50" y="16" width="4" height="4" fill="#6b21df" opacity="0.7"/>
      <rect class="pixel glow" x="16" y="50" width="4" height="4" fill="#6b21df" opacity="0.7"/>
      <rect class="pixel glow" x="50" y="50" width="4" height="4" fill="#6b21df" opacity="0.7"/>
      
      <!-- Руки -->
      <rect x="5" y="80" width="15" height="5" fill="#ffb7fa" rx="2"/>
      <rect x="55" y="80" width="15" height="5" fill="#ffb7fa" rx="2"/>
    </g>
    
    <!-- Счастливое состояние -->
    <g class="avatar avatar-happy emote">
      <!-- Тело -->
      <rect x="10" y="50" width="40" height="70" fill="#ffb7fa" rx="5"/>
      
      <!-- Голова -->
      <rect x="10" y="10" width="50" height="50" fill="#ffb7fa" rx="10"/>
      
      <!-- Глаза (счастливые) -->
      <g>
        <path d="M20,30 Q23,34 26,30" stroke="#9966ff" stroke-width="2" fill="none"/>
        <path d="M44,30 Q47,34 50,30" stroke="#9966ff" stroke-width="2" fill="none"/>
      </g>
      
      <!-- Улыбка -->
      <path d="M25,42 Q35,48 45,42" stroke="#9966ff" stroke-width="2" fill="none"/>
      
      <!-- Пиксельные украшения -->
      <rect class="pixel glow" x="16" y="16" width="4" height="4" fill="#6b21df" opacity="0.7"/>
      <rect class="pixel glow" x="50" y="16" width="4" height="4" fill="#6b21df" opacity="0.7"/>
      <rect class="pixel glow" x="16" y="50" width="4" height="4" fill="#6b21df" opacity="0.7"/>
      <rect class="pixel glow" x="50" y="50" width="4" height="4" fill="#6b21df" opacity="0.7"/>
      
      <!-- Руки (подняты) -->
      <rect x="5" y="80" width="15" height="5" fill="#ffb7fa" rx="2" transform="rotate(-30, 0, 72)"/>
      <rect x="45" y="80" width="15" height="5" fill="#ffb7fa" rx="2" transform="rotate(30, 70, 72)"/>
    </g>
  </g>
  
  <!-- Элементы интерфейса -->
  <g class="interface-elements" transform="translate(0, 130)">
    <text font-family="'Pixelify Sans', cursive" font-size="12" fill="#ffffff" x="100" y="20" text-anchor="middle">AVATAR</text>
    <g class="spin" transform="translate(100, 40)">
      <rect x="-15" y="-15" width="30" height="30" fill="none" stroke="#00ffea" stroke-width="2" rx="5"/>
      <rect x="-10" y="-10" width="20" height="20" fill="none" stroke="#9966ff" stroke-width="2" rx="5"/>
    </g>
    <rect class="color-shift" x="30" y="35" width="10" height="10" rx="5"/>
    <rect class="color-shift" x="160" y="35" width="10" height="10" rx="5"/>
    <rect x="10" y="0" width="180" height="60" fill="none" stroke="#00ffea" stroke-width="2" stroke-dasharray="5,3" rx="5"/>
  </g>
  <g transform="translate(20, 30)">
    <circle class="glow color-shift" cx="10" cy="10" r="4" opacity="0.6"/>
  </g>
  <g transform="translate(170, 30)">
    <circle class="glow color-shift" cx="10" cy="10" r="4" opacity="0.6"/>
  </g>
  
  <g transform="translate(0, 170)">
    <rect x="50" y="0" width="100" height="20" fill="#333333" rx="5"/>
    <text font-family="'Pixelify Sans', cursive" font-size="10" fill="#ffffff" x="100" y="14" text-anchor="middle">CUSTOMIZE</text>
  </g>
</svg>
